<svg viewBox="0 365 365 95" fill="none" xmlns="http://www.w3.org/2000/svg">
<path d="M37.3038 371.366H60.6032L97.0395 458.386H72.8726L48.3339 394.083L23.2994 458.386H0L37.3038 371.366ZM22.3079 425.614H72.9965V442.745H22.3079V425.614Z" fill="#F5F5F5"/>
<path d="M89.4486 371.366H113.863L135.552 434.676L157.364 371.366H180.663L146.582 458.386H123.158L89.4486 371.366Z" fill="#F5F5F5"/>
<path d="M228.957 370C235.732 370 241.929 371.117 247.547 373.352C253.248 375.586 258.206 378.731 262.419 382.786C266.716 386.841 270.021 391.6 272.334 397.062C274.73 402.441 275.928 408.317 275.928 414.69C275.928 421.145 274.73 427.145 272.334 432.69C270.021 438.152 266.716 442.952 262.419 447.09C258.206 451.145 253.248 454.331 247.547 456.648C241.929 458.883 235.732 460 228.957 460C222.265 460 216.068 458.883 210.367 456.648C204.667 454.331 199.668 451.145 195.372 447.09C191.158 442.952 187.853 438.152 185.457 432.69C183.144 427.145 181.987 421.145 181.987 414.69C181.987 408.317 183.144 402.4 185.457 396.938C187.853 391.476 191.158 386.759 195.372 382.786C199.668 378.731 204.667 375.586 210.367 373.352C216.068 371.117 222.265 370 228.957 370ZM229.205 388.993C225.983 388.993 222.885 389.655 219.91 390.979C217.019 392.221 214.457 394.041 212.226 396.441C210.078 398.759 208.385 401.49 207.145 404.634C205.906 407.697 205.286 411.09 205.286 414.814C205.286 418.455 205.906 421.89 207.145 425.117C208.385 428.262 210.12 431.034 212.35 433.434C214.581 435.752 217.142 437.572 220.034 438.897C222.926 440.221 225.983 440.883 229.205 440.883C232.428 440.883 235.443 440.221 238.252 438.897C241.144 437.572 243.664 435.752 245.812 433.434C247.96 431.034 249.613 428.262 250.77 425.117C252.009 421.89 252.629 418.455 252.629 414.814C252.629 411.09 252.009 407.697 250.77 404.634C249.613 401.49 247.96 398.759 245.812 396.441C243.664 394.041 241.144 392.221 238.252 390.979C235.443 389.655 232.428 388.993 229.205 388.993Z" fill="#F5F5F5"/>
<path d="M326.209 371.366C337.776 371.366 346.699 374.055 352.979 379.434C359.258 384.731 362.397 392.221 362.397 401.903C362.397 412.083 359.258 420.028 352.979 425.738C346.699 431.366 337.776 434.179 326.209 434.179H309.85V458.386H287.17V371.366H326.209ZM326.209 416.303C330.918 416.303 334.512 415.145 336.991 412.828C339.552 410.51 340.833 407.076 340.833 402.524C340.833 398.138 339.552 394.828 336.991 392.593C334.512 390.359 330.918 389.241 326.209 389.241H309.85V416.303H326.209ZM322.243 425.862H344.303L365 458.386H339.346L322.243 425.862Z" fill="#F5F5F5"/>
</svg>
