<svg width="1378" height="458" viewBox="0 0 1378 458" fill="none" xmlns="http://www.w3.org/2000/svg">
<path d="M155.759 153.389C173.758 157.753 186.911 164.979 195.218 175.069C203.525 184.885 207.679 197.975 207.679 214.336C207.679 240.787 196.88 260.421 175.281 273.238C153.959 285.782 122.115 292.054 79.7488 292.054C52.0582 292.054 25.6137 291.236 0.415359 289.599H0L3.73822 211.473L0 25.7694L105.501 25.3604C134.022 25.3604 156.313 31.0869 172.374 42.54C188.434 53.9931 196.464 70.491 196.464 92.0337C196.464 105.941 192.865 118.212 185.665 128.847C178.742 139.209 168.774 147.39 155.759 153.389ZM127.93 101.033C127.93 89.8521 124.331 82.0804 117.131 77.7173C110.208 73.3543 97.6092 71.1727 79.3334 71.1727H66.0419L64.3805 135.392L100.101 137.028C109.516 134.301 116.439 130.074 120.869 124.348C125.577 118.621 127.93 110.849 127.93 101.033ZM92.2095 246.241C107.162 246.241 118.792 243.242 127.1 237.242C135.407 231.243 139.56 222.653 139.56 211.473C139.56 203.02 136.93 196.339 131.669 191.43C126.407 186.249 118.239 182.431 107.162 179.977L63.5498 180.795L63.1344 204.928L64.3805 244.605C78.7796 245.696 88.0559 246.241 92.2095 246.241Z" fill="white"/>
<path d="M305.957 204.928L308.864 289.599H243.238L246.56 211.064L244.068 6.95364L309.28 2.45422L305.957 204.928Z" fill="white"/>
<path d="M358.493 211.473L356.416 102.26L421.627 97.3512L418.72 204.928L421.212 289.599H355.585L358.493 211.473ZM390.06 0C400.306 0 408.198 2.86327 413.736 8.5898C419.551 14.3163 422.458 22.2244 422.458 32.314C422.458 43.2217 419.274 51.9479 412.905 58.4925C406.536 64.7644 398.09 67.9004 387.568 67.9004C377.046 67.9004 369.015 65.0371 363.477 59.3106C357.939 53.584 355.17 45.5396 355.17 35.1773C355.17 24.5423 358.216 16.0888 364.308 9.81692C370.677 3.27231 379.261 0 390.06 0Z" fill="white"/>
<path d="M554.328 242.151C562.635 242.151 571.496 240.106 580.911 236.015L585.48 240.924L579.249 278.146C565.404 285.782 551.005 290.554 536.052 292.463C515.838 291.372 500.47 286.191 489.947 276.919C479.425 267.375 474.164 254.422 474.164 238.06L476.24 200.838L475.825 138.255H450.073L447.996 134.983L450.904 99.8054H475.41V67.0823L535.637 49.4937L540.206 53.5841L538.544 99.8054H584.234L586.31 103.487L583.403 138.255H537.298L534.806 220.881C534.806 228.789 536.191 234.379 538.96 237.651C542.006 240.651 547.128 242.151 554.328 242.151Z" fill="white"/>
<path d="M646.047 98.1693H729.534L753.21 97.7602L753.625 136.21L665.985 248.695H717.074L754.04 245.832L757.363 249.923L753.21 290.827L700.459 289.599H627.356L597.035 291.236V253.195L685.506 139.073H637.325L600.773 141.936L597.035 137.846L601.604 97.3512L646.047 98.1693Z" fill="white"/>
<path d="M947.25 30.6779L943.512 79.3535L891.177 76.8992H879.547L877.47 204.928L879.962 289.599H812.674L816.412 211.473L814.336 76.8992H801.875L749.124 79.3535L744.971 74.445L749.124 25.7694H943.512L947.25 30.6779Z" fill="white"/>
<path d="M1224.83 248.286L1219.02 282.237C1207.39 289.599 1195.48 293.281 1183.3 293.281C1167.24 290.008 1156.16 279.237 1150.07 260.967H1145.91C1129.85 276.783 1113.66 287.145 1097.32 292.054C1076.55 292.054 1060.63 287.418 1049.55 278.146C1038.48 268.602 1032.94 255.104 1032.94 237.651L1034.18 191.839L1032.11 102.26L1095.24 97.3512L1094.41 213.927C1094.13 231.652 1101.33 240.515 1116.01 240.515C1120.99 240.515 1125.7 239.56 1130.13 237.651C1134.56 235.743 1139.41 232.607 1144.67 228.244V102.26L1206.97 97.3512L1203.23 235.606C1203.23 239.424 1203.79 242.151 1204.9 243.787C1206.28 245.423 1208.36 246.241 1211.13 246.241C1213.62 246.241 1216.66 245.696 1220.26 244.605L1224.83 248.286Z" fill="white"/>
<path d="M1367.88 97.7602C1369.54 97.7602 1372.86 98.0329 1377.85 98.5783V157.889L1371.2 159.934C1367.32 158.025 1362.2 157.071 1355.83 157.071C1340.88 157.071 1327.17 164.979 1314.71 180.795V204.928L1317.62 289.599H1251.99L1255.32 211.473L1252.41 102.26L1315.13 97.3512V134.165H1318.04C1331.05 109.895 1347.66 97.7602 1367.88 97.7602Z" fill="white"/>
<path fill-rule="evenodd" clip-rule="evenodd" d="M1026.24 178.942C1026.24 226.366 957.016 289.599 957.016 289.599C957.016 289.599 887.789 226.366 887.789 178.942C887.789 139.654 918.783 107.804 957.016 107.804C995.248 107.804 1026.24 139.654 1026.24 178.942ZM979.13 179.566C979.13 192.116 969.229 202.29 957.016 202.29C944.803 202.29 934.902 192.116 934.902 179.566C934.902 167.015 944.803 156.841 957.016 156.841C969.229 156.841 979.13 167.015 979.13 179.566Z" fill="#829E90"/>
<path d="M1058.42 458H570.42L911.125 376.264L1058.42 458Z" fill="#A98E7E"/>
<path d="M985.515 355.345L973.613 380.351L1129.83 458H1377.85V368.5L1347 335.5L1318.04 305.333H1157L985.515 355.345Z" fill="#A98E7E"/>
<path d="M1048 305.333L998.905 321.958L1009.32 305.333H1048Z" fill="#A98E7E"/>
<path d="M879.962 305.333V342L754.238 373.632L685.465 310.69V304.5L879.962 305.333Z" fill="#A98E7E"/>
<path d="M661.544 332.117L716.861 384.345L494.097 437.912L661.544 332.117Z" fill="#A98E7E"/>
</svg>
